<?xml version="1.0" standalone="no"?>
<!DOCTYPE svg PUBLIC "-//W3C//DTD SVG 20010904//EN"
 "http://www.w3.org/TR/2001/REC-SVG-20010904/DTD/svg10.dtd">
<svg version="1.0" xmlns="http://www.w3.org/2000/svg"
 width="528.053325pt" height="115.119479pt" viewBox="0 0 528.053325 115.119479"
 preserveAspectRatio="xMidYMid meet">
<metadata>
Created by potrace 1.12, written by Peter Selinger 2001-2015
</metadata>
<g transform="translate(-96.946675,218.000000) scale(0.100000,-0.100000)"
fill="#000000" stroke="none">
<path d="M1420 1860 c0 -176 -2 -320 -5 -320 -3 0 -39 18 -79 40 -40 22 -78
40 -85 40 -7 0 -74 -34 -147 -76 l-135 -77 3 -140 3 -141 138 -79 137 -78 138
78 c128 73 137 80 140 111 3 30 6 32 40 32 20 0 91 2 157 4 66 2 132 2 148 -1
27 -5 27 -6 27 -90 0 -76 2 -86 25 -108 31 -32 69 -32 100 0 23 22 25 32 25
108 l0 85 34 6 c19 4 37 14 40 22 3 9 6 171 6 361 l0 346 -97 98 -97 99 -258
0 -258 0 0 -320z m482 198 l3 -93 93 -3 92 -3 0 -334 c0 -328 0 -335 -20 -335
-19 0 -20 7 -20 158 0 130 -3 169 -19 214 -26 76 -51 122 -61 112 -5 -5 -22
-44 -39 -87 -30 -75 -31 -82 -31 -237 l0 -160 -185 0 -185 0 0 89 0 88 -39 26
-40 27 -1 308 c0 169 3 311 6 315 4 4 105 7 225 7 l218 0 3 -92z m97 1 c28
-27 51 -52 51 -55 0 -2 -25 -4 -55 -4 l-55 0 0 55 c0 30 2 55 4 55 2 0 26 -23
55 -51z m-1 -416 c12 -36 8 -43 -25 -43 -26 0 -30 23 -11 65 13 29 21 24 36
-22z m-650 -112 c48 -28 95 -56 106 -64 17 -13 17 -14 -12 -26 -29 -12 -36
-10 -134 45 -57 32 -105 59 -108 62 -7 5 31 32 47 32 7 0 53 -22 101 -49z
m611 -174 c1 -113 -2 -177 -9 -177 -6 0 -10 71 -9 198 0 115 4 188 9 177 4
-12 8 -101 9 -198z m51 18 c0 -107 -3 -195 -7 -195 -5 0 -7 87 -6 192 2 106 3
194 3 196 0 1 2 2 5 2 3 0 5 -88 5 -195z m-730 86 l115 -67 0 -39 c0 -30 -4
-41 -17 -43 -14 -3 -18 4 -18 31 0 31 -5 38 -42 60 -24 13 -76 43 -116 66 -40
23 -70 46 -67 52 10 16 27 9 145 -60z m-85 -32 c58 -34 105 -64 105 -68 0 -3
-11 -11 -24 -17 -21 -10 -38 -4 -135 50 -61 34 -111 63 -111 66 0 5 39 27 53
29 4 0 55 -26 112 -60z m-70 -68 l100 -59 3 -110 3 -111 -108 63 -108 62 -3
107 c-1 59 1 107 5 107 4 -1 53 -27 108 -59z m365 -48 l0 -108 -110 -62 -110
-62 0 109 c0 98 2 110 19 120 27 14 28 14 35 -20 6 -34 22 -38 69 -14 41 21
47 31 47 78 0 36 19 65 43 66 4 0 7 -48 7 -107z m518 -205 c-3 -29 -6 -33 -33
-33 -27 0 -30 4 -33 33 -3 31 -2 32 33 32 35 0 36 -1 33 -32z"/>
<path d="M1490 1905 c0 -8 9 -15 20 -15 11 0 20 7 20 15 0 8 -9 15 -20 15 -11
0 -20 -7 -20 -15z"/>
<path d="M1570 1905 c0 -13 33 -15 240 -15 207 0 240 2 240 15 0 13 -33 15
-240 15 -207 0 -240 -2 -240 -15z"/>
<path d="M1490 1830 c0 -20 5 -20 242 -18 222 3 243 4 246 21 3 16 -14 17
-242 17 -240 0 -246 0 -246 -20z"/>
<path d="M2017 1843 c-14 -13 -6 -33 13 -33 13 0 20 7 20 20 0 19 -20 27 -33
13z"/>
<path d="M1673 1772 c-154 -2 -183 -5 -183 -17 0 -13 28 -15 184 -15 122 0
187 4 192 11 3 6 2 14 -2 17 -5 4 -91 6 -191 4z"/>
<path d="M1492 1683 c3 -16 21 -18 186 -21 177 -2 182 -2 182 18 0 19 -6 20
-186 20 -171 0 -185 -1 -182 -17z"/>
<path d="M2506 1972 c-2 -4 -5 -95 -5 -202 0 -139 4 -197 12 -202 7 -4 60 -8
118 -8 81 0 109 3 119 15 23 27 0 35 -106 35 l-104 0 0 70 0 69 103 3 c97 3
102 4 105 25 3 22 0 22 -100 25 l-103 3 -3 62 -3 62 108 3 c100 3 108 4 108
23 0 19 -8 20 -122 23 -67 1 -124 -1 -127 -6z"/>
<path d="M2908 1797 c-96 -229 -95 -227 -68 -227 15 0 26 13 43 51 l22 50 97
2 97 2 17 -45 c9 -25 21 -50 26 -57 11 -14 38 -6 38 10 0 7 -37 98 -81 204
-58 137 -87 193 -98 193 -11 0 -39 -54 -93 -183z m172 -84 c0 -2 -36 -3 -79
-3 l-80 0 28 68 c58 138 49 135 93 30 21 -51 38 -94 38 -95z"/>
<path d="M3343 1969 c-68 -20 -95 -103 -50 -153 12 -14 56 -39 96 -56 86 -35
111 -54 111 -85 0 -31 -32 -56 -79 -62 -31 -4 -53 1 -94 21 -66 32 -69 32 -65
4 4 -33 87 -72 149 -71 119 2 177 109 98 181 -12 12 -57 35 -101 53 -98 39
-119 68 -78 109 13 13 33 20 60 20 23 0 58 -9 80 -20 47 -24 56 -25 64 -5 8
22 -61 64 -114 70 -25 2 -59 0 -77 -6z"/>
<path d="M3627 1973 c-15 -15 -4 -39 63 -129 l70 -94 0 -90 c0 -82 2 -90 19
-90 26 0 31 19 31 109 l0 77 70 94 c39 52 69 101 68 109 -6 34 -30 16 -92 -69
-37 -49 -70 -90 -74 -90 -4 1 -36 41 -72 90 -65 90 -71 96 -83 83z"/>
<path d="M4386 1970 c-50 -16 -76 -48 -76 -94 1 -62 22 -81 144 -127 62 -23
86 -49 86 -92 0 -22 4 -28 18 -25 22 4 27 41 11 79 -15 38 -53 65 -125 89 -68
24 -94 45 -94 76 0 53 88 71 162 33 24 -12 44 -17 50 -11 38 38 -102 95 -176
72z"/>
<path d="M4658 1973 c-10 -2 -18 -11 -18 -19 0 -14 12 -18 40 -14 23 3 126
-12 113 -17 -10 -4 -13 -45 -13 -159 l0 -154 -189 0 c-182 0 -190 1 -235 25
-26 14 -52 23 -57 20 -20 -13 -7 -33 40 -58 48 -27 50 -27 265 -27 l217 0 -3
180 c-3 166 -2 180 15 181 9 1 39 2 66 3 54 1 66 8 58 31 -5 13 -28 15 -144
14 -76 -1 -146 -3 -155 -6z"/>
<path d="M5200 1970 c-190 -36 -231 -287 -61 -377 154 -81 337 59 292 224 -28
108 -127 173 -231 153z m118 -60 c97 -59 104 -199 14 -268 -30 -23 -45 -27
-98 -27 -73 0 -105 19 -142 81 -42 71 -13 169 62 215 42 26 121 25 164 -1z"/>
<path d="M5713 1971 c-97 -12 -169 -87 -181 -186 -6 -61 33 -142 89 -181 59
-40 146 -45 209 -12 29 16 46 32 48 46 4 28 -9 28 -54 -3 -64 -43 -166 -29
-212 30 -55 70 -50 159 12 221 42 42 89 54 221 54 171 0 155 19 155 -191 0
-172 1 -179 20 -179 19 0 20 7 20 90 0 50 4 90 8 90 5 0 46 -40 91 -90 78 -85
111 -108 111 -76 0 13 -111 144 -146 172 -10 8 4 29 66 100 44 49 80 95 80
102 1 33 -42 3 -114 -78 -44 -50 -83 -90 -88 -90 -4 0 -8 41 -8 90 0 65 -3 90
-12 90 -7 0 -69 2 -138 4 -69 1 -148 0 -177 -3z"/>
<path d="M2552 1413 c-7 -3 -19 -18 -28 -35 -33 -65 16 -147 81 -134 38 8 50
20 40 43 -7 16 -8 17 -12 1 -5 -20 -36 -32 -62 -23 -29 9 -46 67 -29 102 16
33 74 46 84 19 8 -20 24 -21 24 -1 0 27 -59 44 -98 28z"/>
<path d="M2758 1408 c15 -15 16 -148 2 -148 -5 0 -10 -4 -10 -9 0 -15 121 -5
131 10 12 19 11 53 -2 66 -8 8 -7 16 2 31 11 18 10 24 -5 41 -15 16 -31 21
-75 21 -43 0 -52 -3 -43 -12z m100 -35 c3 -20 -1 -23 -32 -23 -32 0 -36 3 -36
26 0 23 3 25 33 22 24 -2 33 -8 35 -25z m2 -58 c6 -8 9 -23 5 -35 -5 -17 -13
-20 -38 -18 -32 3 -45 23 -33 54 7 18 50 18 66 -1z"/>
<path d="M2998 1408 c7 -7 12 -38 12 -70 0 -45 5 -63 20 -78 24 -24 57 -26 88
-4 19 13 22 24 22 78 0 35 5 67 12 74 9 9 4 12 -22 12 -26 0 -31 -3 -22 -12 7
-7 12 -37 12 -68 0 -31 -5 -61 -12 -68 -18 -18 -56 -14 -68 7 -14 27 -13 114
2 129 9 9 4 12 -22 12 -26 0 -31 -3 -22 -12z"/>
</g>
</svg>
